<svg width="800" height="380" viewBox="0 0 800 380" fill="none" xmlns="http://www.w3.org/2000/svg">
  <!-- Background -->
  <rect width="800" height="380" rx="12" fill="#FAFAF8"/>

  <!-- Title -->
  <text x="400" y="30" font-family="system-ui, -apple-system, sans-serif" font-size="14" font-weight="700" fill="#27272A" text-anchor="middle">Search Pipeline</text>

  <!-- ═══ Row 1: Query ═══ -->
  <rect x="320" y="48" width="160" height="36" rx="8" fill="#5E403E"/>
  <text x="400" y="71" font-family="system-ui, sans-serif" font-size="13" font-weight="600" fill="#EFEFEF" text-anchor="middle">Query</text>

  <!-- Arrow down -->
  <line x1="400" y1="84" x2="400" y2="100" stroke="#BA998C" stroke-width="1.5"/>
  <polygon points="395,98 400,106 405,98" fill="#BA998C"/>

  <!-- ═══ Row 2: Embedding ═══ -->
  <rect x="280" y="108" width="240" height="36" rx="8" fill="#F0E8E4" stroke="#E0D6D0" stroke-width="1"/>
  <text x="400" y="131" font-family="'SF Mono', Menlo, monospace" font-size="12" fill="#5E403E" text-anchor="middle">Gemini Embedding (768D + 256D)</text>

  <!-- Arrow splits to 3 -->
  <line x1="400" y1="144" x2="400" y2="158" stroke="#BA998C" stroke-width="1.5"/>
  <line x1="400" y1="158" x2="140" y2="158" stroke="#BA998C" stroke-width="1.5"/>
  <line x1="400" y1="158" x2="660" y2="158" stroke="#BA998C" stroke-width="1.5"/>
  <line x1="140" y1="158" x2="140" y2="170" stroke="#BA998C" stroke-width="1.5"/>
  <polygon points="135,168 140,176 145,168" fill="#BA998C"/>
  <line x1="400" y1="158" x2="400" y2="170" stroke="#BA998C" stroke-width="1.5"/>
  <polygon points="395,168 400,176 405,168" fill="#BA998C"/>
  <line x1="660" y1="158" x2="660" y2="170" stroke="#BA998C" stroke-width="1.5"/>
  <polygon points="655,168 660,176 665,168" fill="#BA998C"/>

  <!-- ═══ Row 3: Three parallel searches ═══ -->
  <!-- Vector Search -->
  <rect x="40" y="178" width="200" height="72" rx="8" fill="#FFFFFF" stroke="#E8E0DC" stroke-width="1"/>
  <text x="140" y="200" font-family="system-ui, sans-serif" font-size="12" font-weight="600" fill="#27272A" text-anchor="middle">Vector Search</text>
  <text x="140" y="218" font-family="'SF Mono', Menlo, monospace" font-size="10" fill="#8A7A7E" text-anchor="middle">256D shortlist (200)</text>
  <text x="140" y="234" font-family="'SF Mono', Menlo, monospace" font-size="10" fill="#8A7A7E" text-anchor="middle">768D rerank</text>

  <!-- BM25 Search -->
  <rect x="300" y="178" width="200" height="72" rx="8" fill="#FFFFFF" stroke="#E8E0DC" stroke-width="1"/>
  <text x="400" y="200" font-family="system-ui, sans-serif" font-size="12" font-weight="600" fill="#27272A" text-anchor="middle">BM25 Search</text>
  <text x="400" y="218" font-family="'SF Mono', Menlo, monospace" font-size="10" fill="#8A7A7E" text-anchor="middle">SQLite FTS5</text>
  <text x="400" y="234" font-family="'SF Mono', Menlo, monospace" font-size="10" fill="#8A7A7E" text-anchor="middle">Porter stemming</text>

  <!-- Immediate Recall -->
  <rect x="560" y="178" width="200" height="72" rx="8" fill="#FFFFFF" stroke="#E8E0DC" stroke-width="1"/>
  <text x="660" y="200" font-family="system-ui, sans-serif" font-size="12" font-weight="600" fill="#27272A" text-anchor="middle">Immediate Recall</text>
  <text x="660" y="218" font-family="'SF Mono', Menlo, monospace" font-size="10" fill="#8A7A7E" text-anchor="middle">256D raw messages</text>
  <text x="660" y="234" font-family="'SF Mono', Menlo, monospace" font-size="10" fill="#8A7A7E" text-anchor="middle">Session-scoped</text>

  <!-- Arrows merge -->
  <line x1="140" y1="250" x2="140" y2="264" stroke="#BA998C" stroke-width="1.5"/>
  <line x1="400" y1="250" x2="400" y2="264" stroke="#BA998C" stroke-width="1.5"/>
  <line x1="660" y1="250" x2="660" y2="264" stroke="#BA998C" stroke-width="1.5"/>
  <line x1="140" y1="264" x2="660" y2="264" stroke="#BA998C" stroke-width="1.5"/>
  <line x1="400" y1="264" x2="400" y2="278" stroke="#BA998C" stroke-width="1.5"/>
  <polygon points="395,276 400,284 405,276" fill="#BA998C"/>

  <!-- ═══ Row 4: RRF Fusion ═══ -->
  <rect x="240" y="286" width="320" height="36" rx="8" fill="#5E403E"/>
  <text x="400" y="309" font-family="system-ui, sans-serif" font-size="13" font-weight="600" fill="#EFEFEF" text-anchor="middle">RRF Fusion (70% Vector + 30% BM25, k=10)</text>

  <!-- Arrow down -->
  <line x1="400" y1="322" x2="400" y2="338" stroke="#BA998C" stroke-width="1.5"/>
  <polygon points="395,336 400,344 405,336" fill="#BA998C"/>

  <!-- ═══ Row 5: Results ═══ -->
  <rect x="260" y="346" width="280" height="28" rx="8" fill="#F0E8E4" stroke="#E0D6D0" stroke-width="1"/>
  <text x="400" y="365" font-family="system-ui, sans-serif" font-size="12" fill="#5E403E" text-anchor="middle">Recency Boost + Temporal Boosting + Dedup</text>

  <!-- Weight labels -->
  <rect x="60" y="260" width="50" height="18" rx="4" fill="#F0E8E4"/>
  <text x="85" y="273" font-family="'SF Mono', Menlo, monospace" font-size="9" fill="#5E403E" text-anchor="middle">70%</text>
  <rect x="375" y="260" width="50" height="18" rx="4" fill="#F0E8E4"/>
  <text x="400" y="273" font-family="'SF Mono', Menlo, monospace" font-size="9" fill="#5E403E" text-anchor="middle">30%</text>
  <rect x="638" y="260" width="50" height="18" rx="4" fill="#F0E8E4"/>
  <text x="663" y="273" font-family="'SF Mono', Menlo, monospace" font-size="9" fill="#5E403E" text-anchor="middle">bonus</text>
</svg>
